<svg width="40" height="10" viewBox="0 0 40 10" fill="none" xmlns="http://www.w3.org/2000/svg">
<path d="M0.758523 9V0.272727H4.2017C4.86364 0.272727 5.42756 0.399148 5.89347 0.651989C6.35938 0.901989 6.71449 1.25 6.95881 1.69602C7.20597 2.1392 7.32955 2.65057 7.32955 3.23011C7.32955 3.80966 7.20455 4.32102 6.95455 4.7642C6.70455 5.20739 6.34233 5.55256 5.8679 5.79972C5.39631 6.04687 4.82528 6.17045 4.15483 6.17045H1.96023V4.69176H3.85653C4.21165 4.69176 4.50426 4.63068 4.73438 4.50852C4.96733 4.38352 5.14063 4.21165 5.25426 3.9929C5.37074 3.77131 5.42898 3.51705 5.42898 3.23011C5.42898 2.94034 5.37074 2.6875 5.25426 2.47159C5.14063 2.25284 4.96733 2.08381 4.73438 1.96449C4.50142 1.84233 4.20597 1.78125 3.84801 1.78125H2.60369V9H0.758523ZM9.0245 9H7.04723L10.06 0.272727H12.4379L15.4464 9H13.4691L11.283 2.26705H11.2148L9.0245 9ZM8.90092 5.5696H13.5714V7.00994H8.90092V5.5696ZM21.8874 0.272727H23.7326V5.94034C23.7326 6.5767 23.5806 7.13352 23.2766 7.6108C22.9755 8.08807 22.5536 8.46023 22.011 8.72727C21.4684 8.99148 20.8363 9.12358 20.1147 9.12358C19.3903 9.12358 18.7567 8.99148 18.2141 8.72727C17.6715 8.46023 17.2496 8.08807 16.9485 7.6108C16.6474 7.13352 16.4968 6.5767 16.4968 5.94034V0.272727H18.342V5.78267C18.342 6.11506 18.4144 6.41051 18.5593 6.66903C18.707 6.92756 18.9144 7.13068 19.1815 7.27841C19.4485 7.42614 19.7596 7.5 20.1147 7.5C20.4727 7.5 20.7837 7.42614 21.0479 7.27841C21.315 7.13068 21.521 6.92756 21.6658 6.66903C21.8136 6.41051 21.8874 6.11506 21.8874 5.78267V0.272727ZM25.2507 9V0.272727H27.0959V7.47869H30.8374V9H25.2507ZM39.7393 4.63636C39.7393 5.58807 39.5589 6.39773 39.1982 7.06534C38.8402 7.73295 38.3516 8.2429 37.7322 8.59517C37.1158 8.9446 36.4226 9.11932 35.6527 9.11932C34.8771 9.11932 34.1811 8.94318 33.5646 8.59091C32.9482 8.23864 32.4609 7.72869 32.103 7.06108C31.745 6.39347 31.5661 5.58523 31.5661 4.63636C31.5661 3.68466 31.745 2.875 32.103 2.20739C32.4609 1.53977 32.9482 1.03125 33.5646 0.681818C34.1811 0.329545 34.8771 0.153409 35.6527 0.153409C36.4226 0.153409 37.1158 0.329545 37.7322 0.681818C38.3516 1.03125 38.8402 1.53977 39.1982 2.20739C39.5589 2.875 39.7393 3.68466 39.7393 4.63636ZM37.8686 4.63636C37.8686 4.01989 37.7763 3.5 37.5916 3.0767C37.4098 2.65341 37.1527 2.33239 36.8203 2.11364C36.4879 1.89489 36.0987 1.78551 35.6527 1.78551C35.2067 1.78551 34.8175 1.89489 34.4851 2.11364C34.1527 2.33239 33.8942 2.65341 33.7095 3.0767C33.5277 3.5 33.4368 4.01989 33.4368 4.63636C33.4368 5.25284 33.5277 5.77273 33.7095 6.19602C33.8942 6.61932 34.1527 6.94034 34.4851 7.15909C34.8175 7.37784 35.2067 7.48722 35.6527 7.48722C36.0987 7.48722 36.4879 7.37784 36.8203 7.15909C37.1527 6.94034 37.4098 6.61932 37.5916 6.19602C37.7763 5.77273 37.8686 5.25284 37.8686 4.63636Z" fill="#0000FF"/>
</svg>
